<?xml version="1.0" encoding="UTF-8"?>
<!DOCTYPE svg PUBLIC "-//W3C//DTD SVG 1.1//EN" "http://www.w3.org/Graphics/SVG/1.1/DTD/svg11.dtd">
<svg xmlns="http://www.w3.org/2000/svg" version="1.1" width="200px" height="200px" style="shape-rendering:geometricPrecision; text-rendering:geometricPrecision; image-rendering:optimizeQuality; fill-rule:evenodd; clip-rule:evenodd" xmlns:xlink="http://www.w3.org/1999/xlink">
<g><path style="opacity:0.936" fill="#000000" d="M 101.5,18.5 C 105.355,17.8454 108.188,19.1788 110,22.5C 110.5,44.4975 110.667,66.4975 110.5,88.5C 132.836,88.3334 155.169,88.5 177.5,89C 180.167,92.6667 180.167,96.3333 177.5,100C 155.169,100.5 132.836,100.667 110.5,100.5C 110.667,122.836 110.5,145.169 110,167.5C 107.441,170.349 104.274,171.183 100.5,170C 99.2986,169.097 98.4652,167.931 98,166.5C 97.5,144.836 97.3334,123.169 97.5,101.5C 75.8308,101.667 54.1641,101.5 32.5,101C 29.3171,99.9817 27.9838,97.815 28.5,94.5C 28.0456,91.7759 29.0456,89.9425 31.5,89C 53.4975,88.5 75.4975,88.3334 97.5,88.5C 97.3334,66.4975 97.5,44.4975 98,22.5C 98.6897,20.6498 99.8564,19.3164 101.5,18.5 Z"/></g>
</svg>
