<?xml version="1.0" encoding="UTF-8"?>
<!DOCTYPE svg PUBLIC "-//W3C//DTD SVG 1.1//EN" "http://www.w3.org/Graphics/SVG/1.1/DTD/svg11.dtd">
<svg xmlns="http://www.w3.org/2000/svg" version="1.1" width="200px" height="200px" style="shape-rendering:geometricPrecision; text-rendering:geometricPrecision; image-rendering:optimizeQuality; fill-rule:evenodd; clip-rule:evenodd" xmlns:xlink="http://www.w3.org/1999/xlink">
<g><path style="opacity:0.846" fill="#000000" d="M 98.5,16.5 C 99.9217,16.7086 101.255,17.2086 102.5,18C 130,44.1667 157.5,70.3333 185,96.5C 186.913,102.094 185.08,104.261 179.5,103C 152.984,77.6504 126.318,52.4837 99.5,27.5C 72.6823,52.4837 46.0156,77.6504 19.5,103C 13.9202,104.261 12.0868,102.094 14,96.5C 42.0623,69.6012 70.2289,42.9345 98.5,16.5 Z"/></g>
<g><path style="opacity:0.865" fill="#000000" d="M 36.5,102.5 C 38.2624,102.357 39.9291,102.691 41.5,103.5C 42.4997,126.824 42.8331,150.157 42.5,173.5C 54.1667,173.5 65.8333,173.5 77.5,173.5C 77.1846,159.784 77.5179,146.117 78.5,132.5C 92.5,131.167 106.5,131.167 120.5,132.5C 121.482,146.117 121.815,159.784 121.5,173.5C 133.167,173.5 144.833,173.5 156.5,173.5C 156.167,150.157 156.5,126.824 157.5,103.5C 159.969,101.993 162.135,102.327 164,104.5C 164.667,129.5 164.667,154.5 164,179.5C 163.692,180.308 163.192,180.975 162.5,181.5C 154.713,182.151 146.879,182.485 139,182.5C 130.735,182.637 122.568,182.137 114.5,181C 113.51,167.246 113.177,153.412 113.5,139.5C 104.167,139.5 94.8333,139.5 85.5,139.5C 85.8233,153.412 85.4899,167.246 84.5,181C 76.4315,182.137 68.2649,182.637 60,182.5C 52.1206,182.485 44.2873,182.151 36.5,181.5C 35.8076,180.975 35.3076,180.308 35,179.5C 34.3333,154.5 34.3333,129.5 35,104.5C 35.7172,103.956 36.2172,103.289 36.5,102.5 Z"/></g>
</svg>
