<?xml version="1.0" encoding="UTF-8"?>
<!DOCTYPE svg PUBLIC "-//W3C//DTD SVG 1.1//EN" "http://www.w3.org/Graphics/SVG/1.1/DTD/svg11.dtd">
<svg xmlns="http://www.w3.org/2000/svg" version="1.1" width="500px" height="500px" style="shape-rendering:geometricPrecision; text-rendering:geometricPrecision; image-rendering:optimizeQuality; fill-rule:evenodd; clip-rule:evenodd" xmlns:xlink="http://www.w3.org/1999/xlink">
<g><path style="opacity:1" fill="#ffcf46" d="M 224.5,145.5 C 222.379,145.675 220.379,145.341 218.5,144.5C 213.712,130.714 209.212,116.714 205,102.5C 202.765,94.1578 205.765,91.1578 214,93.5C 218.136,108.379 221.803,123.379 225,138.5C 225.796,141.039 225.629,143.372 224.5,145.5 Z"/></g>
<g><path style="opacity:1" fill="#ffcf48" d="M 291.5,92.5 C 294.179,93.2261 296.846,94.0594 299.5,95C 300.022,95.5613 300.355,96.228 300.5,97C 296.055,112.612 291.222,128.112 286,143.5C 284.712,147.853 282.212,148.686 278.5,146C 277.978,145.439 277.645,144.772 277.5,144C 280.763,129.447 284.263,114.947 288,100.5C 288.696,97.5624 289.862,94.8957 291.5,92.5 Z"/></g>
<g><path style="opacity:1" fill="#ffcf44" d="M 135.5,134.5 C 137.783,134.608 139.783,135.441 141.5,137C 152.333,148.5 163.167,160 174,171.5C 173.768,176.727 171.268,178.227 166.5,176C 154.367,165.535 142.534,154.702 131,143.5C 130.333,142.167 130.333,140.833 131,139.5C 132.707,137.963 134.207,136.296 135.5,134.5 Z"/></g>
<g><path style="opacity:1" fill="#ffce43" d="M 336.5,168.5 C 340.1,166.57 343.1,163.903 345.5,160.5C 352.257,152.24 360.09,145.24 369,139.5C 376.907,143.271 377.407,147.771 370.5,153C 358.833,162 347.167,171 335.5,180C 332.506,180.365 330.506,179.031 329.5,176C 331.32,173.014 333.653,170.514 336.5,168.5 Z"/></g>
<g><path style="opacity:0.902" fill="#ffe394" d="M 218.5,144.5 C 220.379,145.341 222.379,145.675 224.5,145.5C 221.912,148.442 219.912,148.108 218.5,144.5 Z"/></g>
<g><path style="opacity:0.851" fill="#ffe089" d="M 345.5,160.5 C 343.1,163.903 340.1,166.57 336.5,168.5C 338.9,165.097 341.9,162.43 345.5,160.5 Z"/></g>
<g><path style="opacity:1" fill="#a1a09e" d="M 278.5,327.5 C 276.999,326.248 275.332,325.248 273.5,324.5C 280.789,315.373 288.289,306.373 296,297.5C 314.342,274.115 318.342,248.448 308,220.5C 299.302,203.814 285.802,192.981 267.5,188C 223.376,182.137 195.542,200.637 184,243.5C 182.344,264.182 187.678,282.849 200,299.5C 209.778,310.1 218.945,321.1 227.5,332.5C 225.614,333.93 223.947,335.597 222.5,337.5C 222.291,336.078 221.791,334.745 221,333.5C 208.203,320.376 196.537,306.376 186,291.5C 168.079,254.934 173.579,222.434 202.5,194C 234.844,170.668 267.177,170.668 299.5,194C 322.055,217.766 327.888,245.266 317,276.5C 313.861,285.452 309.194,293.452 303,300.5C 295.365,309.969 287.199,318.969 278.5,327.5 Z"/></g>
<g><path style="opacity:1" fill="#fec929" d="M 273.5,324.5 C 270.05,325.91 266.384,326.576 262.5,326.5C 262.5,308.833 262.5,291.167 262.5,273.5C 268.711,273.984 274.711,273.151 280.5,271C 284.138,262.24 282.138,254.907 274.5,249C 269.695,245.234 265.528,245.734 262,250.5C 260.523,254.696 259.689,259.029 259.5,263.5C 258.566,264.568 258.232,265.901 258.5,267.5C 252.167,267.5 245.833,267.5 239.5,267.5C 239.795,265.265 239.461,263.265 238.5,261.5C 238.281,256.905 237.115,252.571 235,248.5C 232.421,246.653 229.588,246.153 226.5,247C 218.819,252.194 215.319,259.361 216,268.5C 216.465,269.931 217.299,271.097 218.5,272C 224.044,273.404 229.71,273.904 235.5,273.5C 235.5,292.5 235.5,311.5 235.5,330.5C 233.039,331.531 230.373,332.198 227.5,332.5C 218.945,321.1 209.778,310.1 200,299.5C 187.678,282.849 182.344,264.182 184,243.5C 195.542,200.637 223.376,182.137 267.5,188C 285.802,192.981 299.302,203.814 308,220.5C 318.342,248.448 314.342,274.115 296,297.5C 288.289,306.373 280.789,315.373 273.5,324.5 Z"/></g>
<g><path style="opacity:1" fill="#ffe78a" d="M 273.5,195.5 C 279.882,195.794 285.549,197.961 290.5,202C 302.992,213.142 309.325,226.976 309.5,243.5C 304.012,235.871 298.512,228.204 293,220.5C 286.333,214.5 279.667,208.5 273,202.5C 270.912,199.956 271.079,197.623 273.5,195.5 Z"/></g>
<g><path style="opacity:1" fill="#ffce43" d="M 142.5,222.5 C 143.341,224.379 143.675,226.379 143.5,228.5C 140.5,228.5 137.5,228.5 134.5,228.5C 122.697,226.7 111.03,224.367 99.5,221.5C 97.4855,220.076 95.1522,219.41 92.5,219.5C 91.6993,217.958 91.366,216.292 91.5,214.5C 90.7553,211.07 92.0886,209.403 95.5,209.5C 111.499,213.08 127.165,217.413 142.5,222.5 Z"/></g>
<g><path style="opacity:0.49" fill="#ffe9ab" d="M 91.5,214.5 C 91.366,216.292 91.6993,217.958 92.5,219.5C 91.3509,219.209 90.6842,218.376 90.5,217C 90.528,215.93 90.8614,215.097 91.5,214.5 Z"/></g>
<g><path style="opacity:0.588" fill="#ffe59a" d="M 92.5,219.5 C 95.1522,219.41 97.4855,220.076 99.5,221.5C 96.8478,221.59 94.5145,220.924 92.5,219.5 Z"/></g>
<g><path style="opacity:1" fill="#ffcf47" d="M 386.5,224.5 C 390.489,224.884 394.155,224.217 397.5,222.5C 401.112,221.489 404.779,221.322 408.5,222C 410.729,225.47 410.729,228.803 408.5,232C 391.241,234.526 373.908,235.86 356.5,236C 353.598,233.137 353.932,230.804 357.5,229C 367.11,227.065 376.776,225.565 386.5,224.5 Z"/></g>
<g><path style="opacity:0.941" fill="#ffe18c" d="M 397.5,222.5 C 394.155,224.217 390.489,224.884 386.5,224.5C 389.974,223.475 393.64,222.808 397.5,222.5 Z"/></g>
<g><path style="opacity:0.867" fill="#ffe18d" d="M 142.5,222.5 C 144.252,222.418 145.252,223.251 145.5,225C 145.175,227.403 144.008,229.236 142,230.5C 139.393,229.877 136.893,229.21 134.5,228.5C 137.5,228.5 140.5,228.5 143.5,228.5C 143.675,226.379 143.341,224.379 142.5,222.5 Z"/></g>
<g><path style="opacity:1" fill="#3e3935" d="M 238.5,261.5 C 238.5,263.833 238.5,266.167 238.5,268.5C 245.5,268.5 252.5,268.5 259.5,268.5C 259.5,266.833 259.5,265.167 259.5,263.5C 259.689,259.029 260.523,254.696 262,250.5C 265.528,245.734 269.695,245.234 274.5,249C 282.138,254.907 284.138,262.24 280.5,271C 274.711,273.151 268.711,273.984 262.5,273.5C 262.5,291.167 262.5,308.833 262.5,326.5C 261.081,327.451 259.415,327.784 257.5,327.5C 257.25,309.48 257.584,291.48 258.5,273.5C 252.5,273.5 246.5,273.5 240.5,273.5C 240.5,292.167 240.5,310.833 240.5,329.5C 239.081,330.451 237.415,330.784 235.5,330.5C 235.5,311.5 235.5,292.5 235.5,273.5C 229.71,273.904 224.044,273.404 218.5,272C 217.299,271.097 216.465,269.931 216,268.5C 215.319,259.361 218.819,252.194 226.5,247C 229.588,246.153 232.421,246.653 235,248.5C 237.115,252.571 238.281,256.905 238.5,261.5 Z"/></g>
<g><path style="opacity:1" fill="#f6c129" d="M 227.5,251.5 C 229.144,251.286 230.644,251.62 232,252.5C 233.591,257.714 234.425,263.048 234.5,268.5C 218.303,269.541 215.969,263.874 227.5,251.5 Z"/></g>
<g><path style="opacity:1" fill="#f6c229" d="M 266.5,251.5 C 274.719,253.578 278.219,258.912 277,267.5C 272.599,268.467 268.099,268.8 263.5,268.5C 263.852,262.7 264.852,257.033 266.5,251.5 Z"/></g>
<g><path style="opacity:1" fill="#e7ab2b" d="M 238.5,261.5 C 239.461,263.265 239.795,265.265 239.5,267.5C 245.833,267.5 252.167,267.5 258.5,267.5C 258.232,265.901 258.566,264.568 259.5,263.5C 259.5,265.167 259.5,266.833 259.5,268.5C 252.5,268.5 245.5,268.5 238.5,268.5C 238.5,266.167 238.5,263.833 238.5,261.5 Z"/></g>
<g><path style="opacity:1" fill="#fdc828" d="M 257.5,327.5 C 252.016,328.518 246.349,329.184 240.5,329.5C 240.5,310.833 240.5,292.167 240.5,273.5C 246.5,273.5 252.5,273.5 258.5,273.5C 257.584,291.48 257.25,309.48 257.5,327.5 Z"/></g>
<g><path style="opacity:1" fill="#ffcf45" d="M 124.5,287.5 C 127.152,287.59 129.485,286.924 131.5,285.5C 135.553,284.106 139.72,282.772 144,281.5C 147.23,283.266 148.063,285.766 146.5,289C 131.986,294.727 117.32,300.06 102.5,305C 95.2391,306.16 92.5724,303.16 94.5,296C 104.336,292.541 114.336,289.708 124.5,287.5 Z"/></g>
<g><path style="opacity:0.859" fill="#ffe28f" d="M 131.5,285.5 C 129.485,286.924 127.152,287.59 124.5,287.5C 126.515,286.076 128.848,285.41 131.5,285.5 Z"/></g>
<g><path style="opacity:1" fill="#ffcf48" d="M 349.5,286.5 C 365.984,291.829 382.317,297.662 398.5,304C 399.357,304.689 400.023,305.522 400.5,306.5C 399.825,313.326 396.492,315.159 390.5,312C 376.5,306 362.5,300 348.5,294C 347.282,291.35 347.615,288.85 349.5,286.5 Z"/></g>
<g><path style="opacity:1" fill="#8b8b8b" d="M 273.5,324.5 C 275.332,325.248 276.999,326.248 278.5,327.5C 282.327,332.649 281.66,337.483 276.5,342C 282.942,347.662 282.942,353.329 276.5,359C 283.08,364.879 283.08,370.712 276.5,376.5C 281.965,381.058 282.632,386.225 278.5,392C 275.155,394.091 271.488,395.424 267.5,396C 266.915,397.302 266.249,398.469 265.5,399.5C 265.5,398.5 265.5,397.5 265.5,396.5C 255.733,397.053 246.066,398.386 236.5,400.5C 236.863,401.183 237.196,401.85 237.5,402.5C 226.133,405.259 220.966,400.926 222,389.5C 223.167,387.667 224.667,386.167 226.5,385C 221.335,381.279 220.168,376.446 223,370.5C 223.903,369.299 225.069,368.465 226.5,368C 220.261,362.499 219.928,356.666 225.5,350.5C 221.64,346.802 220.64,342.469 222.5,337.5C 223.947,335.597 225.614,333.93 227.5,332.5C 230.373,332.198 233.039,331.531 235.5,330.5C 237.415,330.784 239.081,330.451 240.5,329.5C 246.349,329.184 252.016,328.518 257.5,327.5C 259.415,327.784 261.081,327.451 262.5,326.5C 266.384,326.576 270.05,325.91 273.5,324.5 Z"/></g>
<g><path style="opacity:1" fill="#4c4c4c" d="M 265.5,399.5 C 263.994,407.504 259.161,411.837 251,412.5C 243.9,412.393 239.4,409.06 237.5,402.5C 237.196,401.85 236.863,401.183 236.5,400.5C 246.066,398.386 255.733,397.053 265.5,396.5C 265.5,397.5 265.5,398.5 265.5,399.5 Z"/></g>
</svg>
