<?xml version="1.0" encoding="UTF-8"?>
<!DOCTYPE svg PUBLIC "-//W3C//DTD SVG 1.1//EN" "http://www.w3.org/Graphics/SVG/1.1/DTD/svg11.dtd">
<svg xmlns="http://www.w3.org/2000/svg" version="1.1" width="200px" height="200px" style="shape-rendering:geometricPrecision; text-rendering:geometricPrecision; image-rendering:optimizeQuality; fill-rule:evenodd; clip-rule:evenodd" xmlns:xlink="http://www.w3.org/1999/xlink">
<g><path style="opacity:0.874" fill="#000000" d="M 50.5,7.5 C 53.3646,7.05484 55.8646,7.7215 58,9.5C 58.4992,14.1548 58.6658,18.8215 58.5,23.5C 69.1667,23.5 79.8333,23.5 90.5,23.5C 90.3342,18.8215 90.5008,14.1548 91,9.5C 93.4177,7.31985 96.0844,6.98652 99,8.5C 99.4993,13.4889 99.6659,18.4889 99.5,23.5C 110.5,23.5 121.5,23.5 132.5,23.5C 132.334,18.8215 132.501,14.1548 133,9.5C 135.667,6.83333 138.333,6.83333 141,9.5C 141.499,14.1548 141.666,18.8215 141.5,23.5C 147.565,23.2614 153.565,23.7614 159.5,25C 162.728,26.5629 164.895,29.0629 166,32.5C 166.667,74.5 166.667,116.5 166,158.5C 164.167,161.667 161.667,164.167 158.5,166C 116.5,166.667 74.5,166.667 32.5,166C 29.0629,164.895 26.5629,162.728 25,159.5C 23.3619,118.538 23.0286,77.5383 24,36.5C 24.8333,29 29,24.8333 36.5,24C 40.4862,23.5012 44.4862,23.3345 48.5,23.5C 48.0694,17.972 48.7361,12.6387 50.5,7.5 Z M 35.5,33.5 C 39.8333,33.5 44.1667,33.5 48.5,33.5C 48.1177,41.4916 51.2843,43.4916 58,39.5C 58.4955,37.5273 58.6621,35.5273 58.5,33.5C 69.1667,33.5 79.8333,33.5 90.5,33.5C 89.6478,40.4883 92.4811,42.8216 99,40.5C 99.4966,38.1902 99.6633,35.8568 99.5,33.5C 110.5,33.5 121.5,33.5 132.5,33.5C 131.804,40.9974 134.637,42.9974 141,39.5C 141.495,37.5273 141.662,35.5273 141.5,33.5C 146.179,33.3342 150.845,33.5008 155.5,34C 156,34.5 156.5,35 157,35.5C 157.499,39.8206 157.666,44.1539 157.5,48.5C 116.167,48.5 74.8333,48.5 33.5,48.5C 33.3343,44.1539 33.501,39.8206 34,35.5C 34.7172,34.9558 35.2172,34.2891 35.5,33.5 Z M 33.5,58.5 C 74.8333,58.5 116.167,58.5 157.5,58.5C 157.826,90.8769 157.493,123.21 156.5,155.5C 155.975,156.192 155.308,156.692 154.5,157C 114.833,157.667 75.1667,157.667 35.5,157C 35,156.5 34.5,156 34,155.5C 33.5,123.168 33.3334,90.8351 33.5,58.5 Z M 81.5,90.5 C 82.6569,98.9901 82.8236,107.657 82,116.5C 77.6513,112.318 73.4846,107.985 69.5,103.5C 73.5219,99.1465 77.5219,94.8131 81.5,90.5 Z M 114.5,90.5 C 115.657,98.9901 115.824,107.657 115,116.5C 110.651,112.318 106.485,107.985 102.5,103.5C 106.522,99.1465 110.522,94.8131 114.5,90.5 Z"/></g>
<g><path style="opacity:0.892" fill="#000000" d="M 86.5,73.5 C 88.0295,74.0668 89.5295,74.7334 91,75.5C 91.3333,83.8333 91.6667,92.1667 92,100.5C 101.046,90.9517 110.546,81.9517 120.5,73.5C 121.748,74.0402 122.915,74.7069 124,75.5C 124.667,94.1667 124.667,112.833 124,131.5C 121.716,133.984 119.216,134.151 116.5,132C 108.333,123.833 100.167,115.667 92,107.5C 91.6667,115.5 91.3333,123.5 91,131.5C 89.1917,133.396 87.025,133.896 84.5,133C 75.6667,124.167 66.8333,115.333 58,106.5C 57.3333,104.5 57.3333,102.5 58,100.5C 67.1172,90.877 76.6172,81.877 86.5,73.5 Z M 81.5,90.5 C 77.5219,94.8131 73.5219,99.1465 69.5,103.5C 73.4846,107.985 77.6513,112.318 82,116.5C 82.8236,107.657 82.6569,98.9901 81.5,90.5 Z M 114.5,90.5 C 110.522,94.8131 106.522,99.1465 102.5,103.5C 106.485,107.985 110.651,112.318 115,116.5C 115.824,107.657 115.657,98.9901 114.5,90.5 Z"/></g>
</svg>
