<?xml version="1.0" encoding="UTF-8"?>
<!DOCTYPE svg PUBLIC "-//W3C//DTD SVG 1.1//EN" "http://www.w3.org/Graphics/SVG/1.1/DTD/svg11.dtd">
<svg xmlns="http://www.w3.org/2000/svg" version="1.1" width="200px" height="200px" style="shape-rendering:geometricPrecision; text-rendering:geometricPrecision; image-rendering:optimizeQuality; fill-rule:evenodd; clip-rule:evenodd" xmlns:xlink="http://www.w3.org/1999/xlink">
<g><path style="opacity:0.836" fill="#000000" d="M 90.5,33.5 C 124.915,31.2783 148.749,45.9449 162,77.5C 171.626,115.407 159.126,143.24 124.5,161C 85.4923,172.572 56.659,160.405 38,124.5C 26.4282,85.4923 38.5949,56.659 74.5,38C 79.8742,36.1604 85.2075,34.6604 90.5,33.5 Z M 93.5,40.5 C 121.839,39.7415 142.005,52.0748 154,77.5C 164.179,111.972 153.345,137.472 121.5,154C 86.9899,164.157 61.4899,153.324 45,121.5C 34.8428,86.9899 45.6761,61.4899 77.5,45C 82.8742,43.1604 88.2075,41.6604 93.5,40.5 Z"/></g>
<g><path style="opacity:0.958" fill="#000000" d="M 96.5,70.5 C 119.716,72.2067 129.882,84.5401 127,107.5C 120.584,123.792 108.751,130.292 91.5,127C 75.2078,120.584 68.7078,108.751 72,91.5C 76.0771,79.5806 84.2438,72.5806 96.5,70.5 Z"/></g>
</svg>
